# xmcd
#
# Track frame offsets:
#	150
#	22005
#	44157
#	58830
#	82680
#	122430
#	143167
#
# Disc length: 2220 seconds
#
# Revision: 2
# Processed by: cddbd v1.5.2PL0 Copyright (c) Steve Scherf et al.
# Submitted via: EasyCDDAExtractor 5.0.6
#
DISCID=5a08aa07
DTITLE=Machine Translations - Love On The Vine EP
DYEAR=2003
DGENRE=Indie
TTITLE0=Love On The Vine
TTITLE1=Baby Architect
TTITLE2=Chinese Bride No.9
TTITLE3=Simple Shores (Fictitious Rework by Qua)
TTITLE4=No Thrill At The Rodeo
TTITLE5=A Most Peculiar Place (Old Des Peres Remix)
TTITLE6=Parismatic
EXTD=JM 10/2003 YEAR: 2003
EXTT0=
EXTT1=
EXTT2=
EXTT3=
EXTT4=
EXTT5=
EXTT6=
PLAYORDER=
